<svg xmlns="http://www.w3.org/2000/svg" width="1890" height="333" viewBox="0 0 1890 333">
  <metadata><?xpacket begin="﻿" id="W5M0MpCehiHzreSzNTczkc9d"?>
<x:xmpmeta xmlns:x="adobe:ns:meta/" x:xmptk="Adobe XMP Core 5.6-c142 79.160924, 2017/07/13-01:06:39        ">
   <rdf:RDF xmlns:rdf="http://www.w3.org/1999/02/22-rdf-syntax-ns#">
      <rdf:Description rdf:about=""
            xmlns:xmp="http://ns.adobe.com/xap/1.0/">
         <xmp:CreatorTool>Adobe Photoshop CC (Windows)</xmp:CreatorTool>
      </rdf:Description>
   </rdf:RDF>
</x:xmpmeta>
                                                                                                    
                                                                                                    
                                                                                                    
                                                                                                    
                                                                                                    
                                                                                                    
                                                                                                    
                                                                                                    
                                                                                                    
                                                                                                    
                                                                                                    
                                                                                                    
                                                                                                    
                                                                                                    
                                                                                                    
                                                                                                    
                                                                                                    
                                                                                                    
                                                                                                    
                                                                                                    
                           
<?xpacket end="w"?></metadata>
<defs>
    <style>
      .cls-1 {
        fill: #fff;
        fill-rule: evenodd;
      }
    </style>
  </defs>
  <path id="LASOL_UNDAV" data-name="LASOL UNDAV" class="cls-1" d="M180.559,261.231V227.906H97.147V65.06H63.6V261.231H180.559ZM301.7,63.441H266.224l-64.712,197.79H237.1L250.811,216.3h66.412l14.507,44.928h36.492ZM261.124,182.978l22.44-73.4,22.893,73.4H261.124ZM411.615,247.4q16.885,17.339,48.392,17.337,21.647,0,36.153-7.218a50.536,50.536,0,0,0,22.44-22.059,66.548,66.548,0,0,0,7.933-31.841q0-18.751-6.63-31.5a50.974,50.974,0,0,0-18.36-20.1q-11.73-7.353-36.209-14.234t-30.826-13.222a16.371,16.371,0,0,1-4.987-12.008,15.384,15.384,0,0,1,5.327-12.278q8.271-7.149,22.893-7.15,14.165,0,21.249,6.679t9.237,21.924l33.546-1.753q-0.793-27.252-16.6-43.579T458.081,60.068q-19.155,0-32.7,6.881a47.708,47.708,0,0,0-20.74,20.035,57.966,57.966,0,0,0-7.2,28.265q0,23.477,15.3,39.8,10.879,11.606,37.853,19.564,20.965,6.207,26.859,8.634,8.612,3.644,12.07,8.568a20.262,20.262,0,0,1,3.457,11.94,26.072,26.072,0,0,1-8.217,19.091q-8.218,8.164-24.423,8.162-15.3,0-24.309-9.174T424.081,193.1l-32.639,3.778Q394.727,230.066,411.615,247.4Zm172.137-9.714Q605.623,264.6,642.684,264.6q36.606,0,58.479-27.051t21.873-74.947q0-48.3-22.043-75.42T642.231,60.068q-20.287,0-35.813,7.825Q594.744,73.7,584.942,85.7a95.625,95.625,0,0,0-15.47,27.119q-7.594,20.51-7.593,50.729Q561.879,210.775,583.752,237.688Zm25.386-126.554Q621.83,94.2,642.571,94.2t33.263,16.73q12.521,16.731,12.523,50.729,0,34.4-12.863,51.607t-32.923,17.2q-20.06,0-33.093-17.337T596.445,162.2Q596.445,128.069,609.138,111.134Zm271.869,150.1V227.906H797.6V65.06H764.049V261.231H881.007Zm111.831-92.284q0,33.191,3.287,50.19a58.89,58.89,0,0,0,9.4,21.924,53.333,53.333,0,0,0,19.44,17q12.285,6.542,36.09,6.543,19.725,0,31.96-6a51.6,51.6,0,0,0,19.55-16.122q7.32-10.119,10.03-24.825,2.73-14.7,2.72-50.325V63.441h-33.54V172.86q0,23.475-1.48,33.594a28.709,28.709,0,0,1-8.72,17.067q-7.26,6.951-21.54,6.949-14.055,0-22.15-7.353-8.115-7.353-10.26-19.5-1.245-7.554-1.25-33.055V63.441H992.838V168.947Zm213.272,92.284V132.249l66.98,128.982h33.66V63.441h-31.16V195.526l-68-132.085h-32.64v197.79h31.16Zm149.93,0h63.12q18.585,0,29.7-4.182,14.835-5.667,23.57-15.786,11.565-13.356,17.79-34.944,5.1-17.673,5.1-42.094,0-27.792-5.44-46.749t-15.86-32.044a55,55,0,0,0-25.05-18.214q-10.875-3.776-31.62-3.778h-61.31v197.79ZM1404.66,96.9q20.5,0,27.54,1.889a30.409,30.409,0,0,1,15.52,9.31q6.12,6.88,9.52,19.158t3.4,35.214q0,22.938-3.4,36.225t-8.78,19.091a29.552,29.552,0,0,1-13.54,8.23q-6.24,1.892-20.29,1.889h-25.05V96.9h15.08Zm216.33-33.46h-35.47l-64.71,197.79h35.59l13.71-44.928h66.41l14.51,44.928h36.49Zm-40.57,119.537,22.44-73.4,22.89,73.4h-45.33Zm199.79,78.253,59.5-197.79h-35.59l-40.68,146.386L1721.39,63.441h-36.38l59.39,197.79h35.81Z"/>
</svg>
